<svg width="174" height="94" viewBox="0 0 174 94" fill="none" xmlns="http://www.w3.org/2000/svg">
<path d="M84.594 92H0.626L42.61 0.991997L84.594 92ZM8.05 87.264H77.17L42.61 12.256L8.05 87.264ZM136.72 5.728C131.003 5.728 125.669 7.17866 120.72 10.08C115.856 12.896 111.973 16.7787 109.072 21.728C106.171 26.592 104.72 31.9253 104.72 37.728V54.624C104.72 60.6827 105.573 65.6747 107.28 69.6C109.669 75.1467 113.296 79.6693 118.16 83.168C123.024 86.6667 128.485 88.6293 134.544 89.056V47.456H173.584V55.904C173.584 61.3653 172.773 66.2293 171.152 70.496C168.507 77.5787 164.069 83.2533 157.84 87.52C151.611 91.7867 144.571 93.92 136.72 93.92C129.296 93.92 122.512 91.9147 116.368 87.904C110.309 83.808 105.872 78.3893 103.056 71.648C101.008 66.8693 99.984 61.1947 99.984 54.624V37.728C99.984 31.072 101.605 24.928 104.848 19.296C108.176 13.664 112.656 9.22666 118.288 5.98399C123.92 2.656 130.064 0.991997 136.72 0.991997C142.267 0.991997 147.344 1.93066 151.952 3.808C156.56 5.6 160.485 8.24533 163.728 11.744C166.373 14.6453 168.507 17.888 170.128 21.472C171.835 25.056 172.688 28.6827 172.688 32.352H168.08C167.995 29.1947 167.184 26.08 165.648 23.008C164.197 19.936 162.32 17.1627 160.016 14.688C154.299 8.71466 146.533 5.728 136.72 5.728ZM168.848 52.064H139.152V89.056C145.296 88.6293 150.8 86.7093 155.664 83.296C160.613 79.7973 164.24 75.1893 166.544 69.472C168.08 65.4613 168.848 60.9387 168.848 55.904V52.064Z" fill="white"/>
</svg>
