<svg width="279" height="154" viewBox="0 0 279 154" fill="none" xmlns="http://www.w3.org/2000/svg">
<g filter="url(#filter0_d_11_3)">
<path d="M135.553 143H4.35313L69.9531 0.799964L135.553 143ZM15.9531 135.6H123.953L69.9531 18.4L15.9531 135.6ZM217 8.19996C208.067 8.19996 199.733 10.4666 192 15C184.4 19.4 178.333 25.4666 173.8 33.2C169.267 40.8 167 49.1333 167 58.2V84.6C167 94.0666 168.333 101.867 171 108C174.733 116.667 180.4 123.733 188 129.2C195.6 134.667 204.133 137.733 213.6 138.4V73.4H274.6V86.6C274.6 95.1333 273.333 102.733 270.8 109.4C266.667 120.467 259.733 129.333 250 136C240.267 142.667 229.267 146 217 146C205.4 146 194.8 142.867 185.2 136.6C175.733 130.2 168.8 121.733 164.4 111.2C161.2 103.733 159.6 94.8666 159.6 84.6V58.2C159.6 47.8 162.133 38.2 167.2 29.4C172.4 20.6 179.4 13.6666 188.2 8.59996C197 3.39996 206.6 0.799964 217 0.799964C225.667 0.799964 233.6 2.26663 240.8 5.19997C248 7.99996 254.133 12.1333 259.2 17.6C263.333 22.1333 266.667 27.2 269.2 32.8C271.867 38.4 273.2 44.0666 273.2 49.8H266C265.867 44.8666 264.6 40 262.2 35.2C259.933 30.4 257 26.0666 253.4 22.2C244.467 12.8666 232.333 8.19996 217 8.19996ZM267.2 80.6H220.8V138.4C230.4 137.733 239 134.733 246.6 129.4C254.333 123.933 260 116.733 263.6 107.8C266 101.533 267.2 94.4666 267.2 86.6V80.6Z" fill="white"/>
</g>
<defs>
<filter id="filter0_d_11_3" x="0.353149" y="0.799957" width="278.247" height="153.2" filterUnits="userSpaceOnUse" color-interpolation-filters="sRGB">
<feFlood flood-opacity="0" result="BackgroundImageFix"/>
<feColorMatrix in="SourceAlpha" type="matrix" values="0 0 0 0 0 0 0 0 0 0 0 0 0 0 0 0 0 0 127 0" result="hardAlpha"/>
<feOffset dy="4"/>
<feGaussianBlur stdDeviation="2"/>
<feComposite in2="hardAlpha" operator="out"/>
<feColorMatrix type="matrix" values="0 0 0 0 0 0 0 0 0 0 0 0 0 0 0 0 0 0 0.25 0"/>
<feBlend mode="normal" in2="BackgroundImageFix" result="effect1_dropShadow_11_3"/>
<feBlend mode="normal" in="SourceGraphic" in2="effect1_dropShadow_11_3" result="shape"/>
</filter>
</defs>
</svg>
